<svg id="Capa_1" data-name="Capa 1" xmlns="http://www.w3.org/2000/svg" viewBox="0 0 405.33 512"><defs><style>.cls-1{fill:#2196f3;}.cls-2{fill:#f15922;}</style></defs><path class="cls-1" d="M252.05,511.19a10.64,10.64,0,0,0,11.62-2.33l192-192a10.66,10.66,0,0,0-15.08-15.08l-173.8,173.8V10.67a10.67,10.67,0,0,0-21.34,0V475.58L71.67,301.8a10.66,10.66,0,0,0-15.34,14.82l.26.27,192,192A10.79,10.79,0,0,0,252.05,511.19Z" transform="translate(-53.33 0)"/><path class="cls-2" d="M53.45,309.33a10.67,10.67,0,0,1,18.22-7.55L256.12,486.25,440.57,301.78a10.66,10.66,0,0,1,15.08,15.08l-192,192a10.65,10.65,0,0,1-15.08,0l-192-192A10.63,10.63,0,0,1,53.45,309.33Z" transform="translate(-53.33 0)"/><path class="cls-2" d="M245.45,501.33V10.67a10.67,10.67,0,0,1,21.34,0V501.33a10.67,10.67,0,0,1-21.34,0Z" transform="translate(-53.33 0)"/></svg>